<!DOCTYPE svg PUBLIC "-//W3C//DTD SVG 20010904//EN" "http://www.w3.org/TR/2001/REC-SVG-20010904/DTD/svg10.dtd">
<svg version="1.0" xmlns="http://www.w3.org/2000/svg" width="190px" height="190px" viewBox="0 0 1900 1900" preserveAspectRatio="xMidYMid meet">
<g id="layer101" fill="#12171f" stroke="none">
<path d="M773 1889 c-132 -22 -306 -102 -421 -195 -111 -89 -243 -257 -210 -269 7 -2 49 -16 93 -31 44 -15 134 -49 200 -76 66 -27 134 -53 151 -57 68 -18 69 -34 15 -167 -34 -81 -50 -107 -106 -164 -75 -78 -94 -117 -106 -213 -10 -80 -1 -104 38 -109 30 -3 31 -5 23 -199 -2 -58 8 -85 75 -204 39 -70 68 -99 146 -146 52 -31 84 -43 141 -51 148 -21 263 5 358 80 125 99 153 157 186 380 4 27 12 46 22 49 10 3 27 15 40 26 42 39 26 155 -32 232 -19 24 -25 47 -29 110 -7 113 -32 236 -57 278 -21 35 -21 36 -1 46 11 6 29 11 41 11 12 0 61 15 109 34 102 40 201 71 256 81 45 8 95 31 95 43 0 16 -71 126 -123 189 -127 158 -355 289 -558 322 -75 13 -272 12 -346 0z"/>
</g>
<g id="layer102" fill="#0d3051" stroke="none">
<path d="M1474 1683 c-10 -20 -26 -44 -36 -54 -9 -9 -22 -43 -29 -74 -13 -59 -43 -91 -53 -57 -3 9 -3 -3 0 -27 5 -45 5 -45 -16 -26 -18 16 -20 16 -20 2 0 -10 5 -17 10 -17 6 0 10 -11 10 -25 0 -29 -16 -34 -23 -7 -3 9 -5 4 -6 -13 l-1 -30 -17 32 c-78 138 -266 207 -432 157 -78 -23 -149 -72 -185 -126 -24 -37 -12 -168 15 -168 5 0 9 6 9 13 0 18 115 132 137 134 10 1 32 6 48 11 47 14 172 8 192 -10 10 -8 27 -18 37 -22 10 -3 16 -9 13 -12 -7 -8 18 -34 32 -34 6 0 15 -8 20 -19 17 -31 74 -91 87 -91 7 0 20 10 28 22 18 25 21 17 6 -12 -10 -18 -8 -19 22 -14 52 9 58 12 52 28 -6 15 27 26 95 31 50 4 133 28 131 39 -2 10 20 26 35 26 6 0 3 -5 -5 -11 -12 -8 -9 -9 10 -4 14 3 43 8 64 11 57 8 99 31 91 52 -21 56 -112 182 -132 182 -4 0 -21 -24 -36 -54 -28 -52 -99 -136 -117 -136 -5 0 -10 6 -12 12 -3 8 -9 4 -17 -10 -10 -18 -41 -32 -41 -18 0 2 20 39 45 80 25 42 45 79 45 83 0 13 44 93 52 93 4 0 8 7 8 15 0 8 -5 15 -11 15 -5 0 -8 4 -5 9 7 10 -38 53 -47 45 -4 -4 -13 -2 -20 5 -11 9 -18 3 -33 -26z"/>
<path d="M315 1540 c5 -9 -59 -16 -89 -11 -5 1 -16 -5 -26 -14 -9 -8 -20 -12 -25 -8 -4 5 -5 2 -1 -4 4 -7 3 -13 -3 -13 -6 0 -18 -14 -26 -30 -12 -24 -13 -31 -3 -35 126 -43 169 -55 179 -49 7 4 9 3 6 -3 -4 -6 33 -25 86 -45 51 -19 100 -39 111 -43 15 -7 17 -5 11 13 -7 24 4 29 24 10 11 -11 13 -10 7 5 -3 10 -6 22 -6 27 0 4 -9 10 -20 13 -11 3 -20 10 -20 16 0 6 9 11 20 11 11 0 20 5 20 11 0 12 -126 7 -166 -6 -18 -5 -22 -2 -26 20 -4 18 0 30 14 39 16 12 17 14 3 19 -8 4 -15 15 -15 25 0 20 -35 62 -51 62 -6 0 -7 -4 -4 -10z"/>
<path d="M593 1327 c-3 -5 -6 -21 -7 -36 -2 -22 4 -30 24 -38 19 -7 27 -7 27 1 0 6 2 16 3 21 1 6 2 22 1 37 -1 21 -6 26 -22 25 -11 -1 -23 -5 -26 -10z"/>
<path d="M830 1217 c-14 -12 -33 -38 -42 -57 -23 -47 -65 -90 -88 -90 -34 0 -64 -20 -89 -58 -20 -30 -26 -34 -34 -21 -8 12 -22 2 -79 -58 -78 -83 -97 -119 -109 -216 -10 -79 -1 -107 36 -107 13 0 29 -8 34 -18 10 -15 11 -14 18 8 7 22 8 20 14 -20 15 -102 48 -230 72 -281 25 -52 108 -149 128 -149 5 0 9 -9 9 -20 0 -18 -3 -19 -20 -10 -16 8 -20 8 -20 -4 0 -8 9 -18 21 -21 11 -4 19 -9 16 -11 -8 -9 -73 25 -97 51 -19 21 -22 28 -11 34 15 10 10 20 -39 68 -75 74 -85 70 -35 -13 53 -90 79 -118 154 -164 148 -89 361 -78 496 24 67 51 135 131 135 157 0 11 -2 11 -10 -1 -5 -8 -10 -11 -10 -6 0 5 -9 1 -19 -8 -12 -11 -21 -13 -25 -7 -4 5 6 16 21 23 34 16 48 59 60 173 l8 80 5 -80 5 -80 8 55 c5 30 10 69 11 85 2 19 11 34 24 41 50 25 62 45 62 101 0 59 -18 110 -55 159 -20 25 -25 45 -25 87 0 61 -18 167 -31 182 -5 5 -9 -4 -9 -22 0 -37 -13 -49 -30 -28 -7 8 -19 15 -27 15 -19 0 -73 38 -73 51 0 6 -16 43 -35 84 -41 85 -41 85 -195 90 -96 3 -107 2 -130 -18z m390 -289 c0 -15 -5 -30 -12 -34 -7 -4 -8 -3 -4 4 5 8 -1 12 -15 12 -12 0 -28 8 -35 18 -13 16 -15 16 -25 0 -11 -20 -49 -24 -49 -6 0 6 -7 3 -15 -8 -15 -20 -19 -16 -9 10 3 9 16 16 29 16 14 0 25 7 28 20 5 18 8 19 32 8 31 -14 44 -1 45 42 1 20 4 17 15 -15 8 -22 15 -52 15 -67z m-460 71 c0 -17 5 -20 25 -17 35 7 40 -6 10 -26 -24 -16 -27 -15 -50 1 -27 20 -31 33 -13 51 18 18 28 15 28 -9z m150 -60 c0 -24 -16 -25 -29 -1 -8 14 -6 18 10 19 13 1 19 -5 19 -18z m60 -7 c0 -13 -12 -22 -22 -16 -10 6 -1 24 13 24 5 0 9 -4 9 -8z m204 -341 c3 -4 -8 -8 -24 -7 -17 1 -30 4 -30 9 0 10 48 9 54 -2z m-349 -70 c19 -8 19 -8 0 -18 -11 -5 -33 -9 -50 -7 -16 1 -37 3 -44 3 -22 1 -1 18 29 24 37 6 43 6 65 -2z m344 -27 c50 -10 36 -24 -24 -24 -42 0 -55 3 -55 15 0 16 27 19 79 9z m61 -292 c0 -5 -11 -19 -25 -32 -14 -13 -25 -29 -25 -35 0 -14 -73 -35 -180 -52 -19 -3 -38 -11 -42 -17 -4 -7 -33 -10 -74 -8 -50 3 -76 10 -106 28 -48 30 -45 40 5 19 48 -20 82 -19 223 5 91 16 128 27 157 47 22 15 41 33 44 40 6 14 23 18 23 5z"/>
</g>
<g id="layer103" fill="#582d1e" stroke="none">
<path d="M857 1544 c-74 -23 -146 -73 -181 -126 -24 -37 -12 -168 15 -168 5 0 9 6 9 13 0 18 115 132 137 134 10 1 32 6 48 11 47 14 172 8 192 -10 10 -8 27 -18 37 -22 10 -3 16 -9 13 -12 -7 -8 18 -34 32 -34 6 0 15 -9 21 -20 6 -10 26 -36 45 -57 45 -49 67 -39 78 37 12 85 -31 158 -126 213 -96 57 -218 72 -320 41z"/>
<path d="M1305 1233 c-21 -20 -17 -22 30 -14 22 3 36 9 30 12 -28 16 -46 17 -60 2z"/>
<path d="M830 1217 c-14 -12 -33 -38 -42 -57 -23 -47 -65 -90 -88 -90 -34 0 -64 -20 -89 -58 -20 -30 -26 -34 -34 -21 -8 12 -22 2 -79 -58 -78 -83 -97 -119 -109 -216 -10 -79 -1 -107 36 -107 13 0 29 -8 34 -18 10 -15 11 -14 18 8 7 22 8 20 14 -20 15 -102 48 -230 72 -281 25 -52 108 -149 128 -149 5 0 9 -9 9 -19 0 -15 -5 -18 -22 -14 -16 4 -10 -3 17 -22 51 -35 55 -39 30 -31 -11 3 -27 1 -35 -4 -11 -7 -3 -14 35 -31 42 -19 69 -23 171 -23 108 -1 126 2 175 24 65 30 102 56 105 76 3 20 -9 18 -63 -10 -94 -48 -136 -61 -193 -59 -30 2 -56 7 -58 13 -2 5 -15 10 -29 10 -24 0 -99 47 -90 56 2 2 20 -3 40 -11 20 -8 52 -15 71 -15 46 0 263 38 284 49 9 5 50 43 91 85 l74 75 10 105 c6 58 14 106 19 106 6 0 7 -17 3 -39 -4 -23 -2 -48 4 -58 9 -15 11 -11 12 22 1 22 2 47 3 55 1 8 11 19 23 26 51 25 63 45 63 101 0 59 -18 110 -55 159 -20 25 -25 45 -25 87 0 61 -18 167 -31 182 -5 5 -9 -4 -9 -22 0 -37 -13 -49 -30 -28 -7 8 -19 15 -27 15 -19 0 -73 38 -73 51 0 6 -16 43 -35 84 -41 85 -41 85 -195 90 -96 3 -107 2 -130 -18z m390 -289 c0 -15 -5 -30 -12 -34 -7 -4 -8 -3 -4 4 5 8 -1 12 -15 12 -12 0 -28 8 -35 18 -13 16 -15 16 -25 0 -11 -20 -49 -24 -49 -6 0 6 -7 3 -15 -8 -15 -20 -19 -16 -9 10 3 9 16 16 29 16 14 0 25 7 28 20 5 18 8 19 32 8 31 -14 44 -1 45 42 1 20 4 17 15 -15 8 -22 15 -52 15 -67z m-460 71 c0 -17 5 -20 25 -17 35 7 40 -6 10 -26 -24 -16 -27 -15 -50 1 -27 20 -31 33 -13 51 18 18 28 15 28 -9z m150 -60 c0 -24 -16 -25 -29 -1 -8 14 -6 18 10 19 13 1 19 -5 19 -18z m60 -7 c0 -13 -12 -22 -22 -16 -10 6 -1 24 13 24 5 0 9 -4 9 -8z m204 -341 c3 -4 -8 -8 -24 -7 -17 1 -30 4 -30 9 0 10 48 9 54 -2z m-349 -70 c19 -8 19 -8 0 -18 -11 -5 -33 -9 -50 -7 -16 1 -37 3 -44 3 -22 1 -1 18 29 24 37 6 43 6 65 -2z m344 -27 c50 -10 36 -24 -24 -24 -42 0 -55 3 -55 15 0 16 27 19 79 9z"/>
</g>
<g id="layer104" fill="#5d4e4e" stroke="none">
<path d="M882 1544 c-92 -24 -167 -72 -202 -129 -17 -27 -19 -43 -14 -89 4 -31 10 -56 13 -56 9 0 35 34 39 51 5 20 22 39 37 39 6 0 20 9 30 20 37 41 72 50 179 46 87 -2 106 -6 138 -27 20 -13 37 -30 38 -36 0 -7 10 -13 22 -13 12 0 19 -3 15 -6 -8 -8 15 -50 51 -93 24 -29 32 -32 49 -23 30 17 38 102 14 156 -31 72 -116 132 -228 161 -70 18 -112 18 -181 -1z"/>
<path d="M136 1444 c-3 -8 0 -17 7 -19 6 -2 44 -15 84 -29 54 -18 70 -21 66 -10 -3 8 -13 14 -22 14 -12 0 -13 2 -3 9 14 9 -14 20 -67 27 -13 2 -27 7 -30 11 -11 14 -29 13 -35 -3z"/>
<path d="M1313 1243 c-7 -3 -13 -10 -13 -17 0 -8 12 -11 35 -8 19 2 33 8 30 12 -6 10 -37 18 -52 13z"/>
<path d="M1018 1226 c-15 -8 -29 -12 -31 -10 -9 9 -107 12 -107 3 0 -5 -8 -9 -18 -9 -43 0 -70 -54 -89 -179 -5 -30 -3 -33 13 -29 11 3 26 7 34 9 8 2 14 -3 15 -11 0 -11 14 -16 55 -17 46 -2 58 -6 76 -29 l21 -26 16 22 c13 19 22 22 57 17 26 -3 45 -1 53 8 9 9 19 10 30 3 40 -22 42 16 10 147 -17 71 -25 81 -71 101 -41 17 -32 17 -64 0z m-3 -76 c8 0 15 -4 15 -10 0 -6 -27 -10 -61 -10 -54 0 -60 2 -49 15 7 8 21 15 31 15 10 0 21 5 25 11 5 8 10 6 16 -5 5 -9 16 -16 23 -16z"/>
<path d="M627 1013 c-28 -33 -67 -116 -68 -147 -1 -17 -5 -42 -10 -56 -13 -39 2 103 17 152 11 37 -17 24 -75 -37 -71 -73 -90 -113 -102 -208 -10 -79 -1 -107 36 -107 13 0 27 -5 31 -11 9 -15 43 43 66 111 l18 55 -6 -75 c-11 -123 -11 -141 -2 -245 12 -123 30 -163 114 -252 35 -37 64 -71 64 -76 0 -4 -12 -4 -27 -1 -25 6 -23 3 12 -21 51 -35 55 -39 30 -31 -11 3 -27 1 -35 -4 -11 -7 -3 -14 35 -31 42 -19 69 -23 171 -23 108 -1 126 2 175 24 65 30 102 56 105 76 3 20 -9 18 -63 -10 -94 -48 -136 -61 -193 -59 -30 2 -56 7 -58 13 -2 5 -15 10 -29 10 -19 0 -113 54 -113 66 0 1 28 -7 63 -18 37 -11 76 -17 97 -14 19 3 80 12 136 19 55 8 109 19 120 25 10 6 52 44 93 86 l74 75 10 105 c6 58 14 106 19 106 6 0 7 -17 3 -39 -4 -23 -2 -48 4 -58 9 -15 11 -11 12 22 1 22 2 47 3 55 1 8 11 19 23 26 51 25 63 45 63 101 0 59 -18 110 -55 159 -17 23 -25 45 -25 74 0 33 -3 41 -15 36 -10 -4 -15 1 -15 16 0 33 -38 88 -57 81 -11 -4 -24 4 -39 22 -32 40 -39 26 -18 -33 17 -48 17 -53 1 -86 -9 -20 -24 -36 -33 -36 -14 0 -14 3 -4 15 8 10 9 19 4 25 -12 11 -116 21 -109 10 11 -17 -15 -20 -48 -6 -27 11 -44 12 -79 4 -39 -9 -51 -8 -96 14 -30 15 -55 21 -58 16 -4 -5 -15 -8 -25 -5 -14 4 -19 0 -19 -16 0 -44 -33 10 -38 61 -3 41 -8 51 -26 56 -33 9 -42 7 -59 -11z m94 -395 c0 -10 2 -10 6 0 8 20 61 15 73 -8 10 -18 8 -20 -30 -20 -22 0 -52 7 -65 16 -16 10 -25 12 -25 5 0 -6 11 -17 25 -23 14 -6 25 -15 25 -20 0 -5 -13 -2 -30 7 -16 9 -30 17 -30 19 0 3 -3 11 -6 20 -5 13 1 16 25 16 18 0 31 -5 32 -12z m135 -3 c-27 -21 -53 -20 -36 0 7 8 22 15 34 15 21 -1 21 -1 2 -15z m280 -7 c40 4 44 3 44 -18 0 -20 -3 -22 -37 -16 -53 9 -94 27 -87 37 3 5 12 6 21 0 9 -4 35 -6 59 -3z m-243 -26 c-4 -9 -15 -23 -26 -31 -15 -11 -16 -15 -6 -22 24 -16 -19 -39 -70 -39 -58 0 -113 15 -143 40 -20 16 -21 19 -6 25 10 4 27 0 40 -9 12 -9 36 -16 53 -16 47 0 128 24 133 39 4 11 -1 12 -19 7 -13 -5 -37 -10 -54 -12 -22 -4 -15 2 25 20 58 25 83 25 73 -2z m342 8 c-28 -12 -47 -12 -40 0 3 6 18 10 33 9 24 0 25 -1 7 -9z m-130 -25 c22 -13 34 -25 26 -25 -14 0 -81 38 -81 46 0 9 17 3 55 -21z m79 -69 c49 -9 36 -22 -30 -31 -38 -5 -55 -3 -65 8 -8 7 -21 16 -28 18 -11 4 -10 8 3 22 15 15 21 15 49 3 18 -7 49 -16 71 -20z"/>
<path d="M1331 1003 c-1 -17 4 -35 9 -38 11 -7 11 9 0 45 -8 24 -8 24 -9 -7z"/>
<path d="M508 238 c34 -49 50 -64 59 -54 11 10 -7 54 -24 59 -10 4 -29 14 -43 24 -22 16 -21 14 8 -29z"/>
<path d="M1231 186 c-29 -30 -30 -34 -13 -38 20 -5 43 21 49 55 4 23 2 22 -36 -17z"/>
</g>
<g id="layer105" fill="#a05f41" stroke="none">
<path d="M848 1536 c-108 -42 -192 -129 -182 -190 11 -60 13 -61 47 -24 30 32 54 50 116 89 19 12 54 17 126 18 105 2 153 -13 198 -60 10 -11 22 -19 27 -19 6 0 10 -8 10 -17 1 -21 23 -53 36 -53 5 0 15 -15 22 -32 l13 -33 19 24 c24 28 27 97 6 144 -21 47 -57 81 -133 124 -65 36 -73 38 -168 40 -68 2 -112 -2 -137 -11z"/>
<path d="M833 1185 c-18 -15 -33 -32 -33 -40 0 -7 -7 -36 -16 -64 -14 -41 -14 -53 -4 -66 9 -11 17 -12 31 -4 19 10 20 9 23 -13 1 -8 13 -12 31 -11 61 4 105 -7 105 -28 0 -11 7 -19 16 -19 11 0 15 6 11 19 -4 18 0 19 55 16 56 -4 60 -3 55 15 -6 24 6 26 23 5 7 -8 19 -15 27 -15 12 0 13 9 8 43 -4 23 -13 55 -21 71 -8 16 -14 39 -14 51 0 47 -77 83 -119 56 -16 -10 -7 -42 11 -39 16 4 22 -28 6 -34 -7 -3 -38 -2 -68 1 l-55 6 30 22 c36 26 26 42 -31 49 -31 4 -45 0 -71 -21z"/>
<path d="M606 977 c-26 -38 -39 -71 -47 -117 -12 -76 -25 -97 -15 -25 19 134 19 135 3 135 -21 0 -115 -104 -134 -147 -21 -51 -35 -170 -23 -193 5 -10 23 -20 40 -22 39 -6 66 23 89 96 l17 56 0 -168 c0 -243 14 -294 113 -393 84 -83 128 -95 296 -80 176 15 198 23 257 84 83 86 98 132 118 347 5 63 12 131 13 150 2 19 5 -3 5 -50 1 -57 7 -93 17 -106 8 -12 12 -24 9 -27 -3 -3 3 -3 14 0 11 3 30 15 42 28 33 35 25 135 -15 201 -37 59 -52 65 -58 22 -3 -25 -4 -21 -6 17 -3 82 -19 136 -49 159 -14 11 -27 19 -28 16 0 -3 -8 1 -17 9 -15 12 -17 10 -17 -23 0 -46 -25 -96 -47 -96 -13 0 -14 3 -5 12 7 7 12 16 12 20 0 9 -105 2 -120 -7 -4 -2 -22 3 -40 11 -23 12 -45 15 -79 10 -34 -4 -59 -1 -87 11 -21 9 -56 17 -76 18 -32 0 -38 -3 -38 -19 0 -19 -1 -19 -16 -4 -9 9 -19 39 -22 66 -3 41 -8 51 -26 56 -37 10 -43 7 -80 -47z m196 -359 c5 -9 11 -8 22 1 8 7 23 11 33 8 14 -3 9 -8 -19 -20 -47 -21 -102 -22 -133 -1 -16 10 -25 12 -25 5 0 -6 11 -17 25 -23 14 -6 25 -15 25 -20 0 -5 -13 -2 -30 7 -16 9 -30 17 -30 19 0 3 -3 11 -6 20 -5 12 6 15 62 15 40 0 71 -5 76 -11z m342 -13 c92 -2 106 -4 106 -14 0 -5 -26 -12 -58 -16 -43 -5 -68 -2 -100 10 -23 10 -39 21 -36 26 3 5 10 6 16 3 6 -4 39 -8 72 -9z m-251 -23 c-4 -9 -15 -23 -26 -31 -15 -11 -16 -15 -6 -22 11 -7 11 -12 -4 -26 -14 -14 -33 -18 -90 -17 -67 0 -75 2 -106 32 -29 26 -32 32 -18 38 9 3 26 -1 39 -10 12 -9 36 -16 53 -16 47 0 128 24 133 39 4 11 -1 12 -19 7 -13 -5 -37 -10 -54 -12 -22 -4 -15 2 25 20 58 25 83 25 73 -2z m212 -17 c22 -13 34 -25 26 -25 -14 0 -81 38 -81 46 0 9 17 3 55 -21z m122 -62 c59 6 62 -7 7 -33 -55 -27 -136 -23 -167 8 -17 17 -17 20 -3 35 15 14 21 14 68 0 30 -8 71 -13 95 -10z"/>
</g>
<g id="layer106" fill="#be6c4c" stroke="none">
<path d="M895 1541 c-53 -13 -146 -64 -181 -99 -38 -38 -49 -69 -40 -108 l7 -26 43 39 c23 21 53 45 66 53 12 8 35 25 50 38 30 24 45 29 34 10 -4 -7 -3 -8 5 -4 14 9 5 26 -15 26 -10 0 -8 6 7 21 19 19 27 21 68 13 51 -10 62 -34 21 -45 -16 -4 -5 -6 30 -6 58 1 114 -26 167 -79 13 -13 27 -24 31 -24 4 0 12 -15 17 -32 6 -18 17 -33 25 -33 8 0 15 -7 16 -15 2 -35 5 -40 19 -40 53 0 45 141 -12 206 -25 28 -134 90 -180 103 -42 12 -132 13 -178 2z"/>
<path d="M1022 1198 c-13 -13 -16 -29 -4 -25 4 1 21 -11 37 -26 l30 -28 -94 3 c-101 3 -117 12 -82 47 20 20 20 20 0 26 -26 9 -79 -16 -79 -36 0 -9 -6 -29 -14 -45 -8 -16 -18 -41 -21 -56 -8 -33 3 -35 83 -14 50 13 70 8 57 -14 -4 -6 -10 -8 -15 -5 -11 7 -85 -23 -78 -31 3 -2 50 -7 104 -10 55 -2 114 -7 132 -10 43 -7 45 22 2 31 -16 4 -30 11 -30 15 0 5 -6 7 -13 4 -7 -2 -13 4 -14 16 -2 24 19 26 37 4 8 -8 30 -23 49 -32 20 -9 39 -18 44 -20 12 -6 -4 81 -20 106 -8 13 -11 32 -8 42 14 43 -71 90 -103 58z"/>
<path d="M666 991 c-4 -5 -15 -8 -26 -6 -12 2 -18 0 -15 -4 2 -5 -2 -14 -11 -22 -34 -28 -45 -66 -67 -229 -10 -67 -11 -120 -5 -180 5 -47 10 -117 12 -157 3 -77 10 -93 79 -176 39 -47 103 -87 160 -101 33 -8 263 10 321 25 26 7 55 28 88 62 60 62 82 103 97 177 25 131 43 468 27 518 -4 12 -13 22 -20 22 -8 0 -19 7 -26 15 -22 26 -38 17 -45 -25 -5 -29 -16 -47 -39 -65 -42 -32 -46 -31 -37 3 9 30 13 29 -92 20 -36 -3 -37 -4 -18 -17 12 -7 21 -17 21 -22 0 -11 -28 -1 -62 23 -32 22 -54 23 -62 3 -3 -9 -19 -15 -41 -15 -22 0 -34 4 -30 10 3 6 15 10 26 10 37 0 19 17 -36 35 -31 9 -67 14 -80 11 -24 -6 -25 -7 -9 -32 19 -29 12 -43 -12 -23 -21 18 -64 85 -64 101 -1 20 -27 51 -34 39z m154 -319 c22 -15 23 -17 6 -20 -10 -2 -22 2 -26 8 -5 9 -26 11 -64 8 -60 -5 -65 -3 -38 19 21 17 86 9 122 -15z m378 -3 c41 -14 54 -44 15 -34 -16 3 -37 8 -48 11 -11 3 -29 -2 -40 -10 l-20 -15 20 -2 c11 -1 34 -2 50 -4 17 -1 48 -3 70 -4 22 -2 35 -5 29 -7 -8 -3 -9 -16 -3 -42 15 -65 12 -72 -38 -94 -91 -40 -213 -2 -213 66 0 17 -4 37 -9 45 -11 17 13 70 32 73 21 2 31 5 47 11 16 6 48 14 66 16 6 0 25 -4 42 -10z m-400 -43 c6 -11 11 -15 11 -8 1 7 16 12 39 13 30 0 33 2 17 9 -18 8 -17 9 7 9 23 1 28 -4 34 -36 4 -21 2 -43 -4 -54 -7 -10 -9 -25 -6 -33 10 -26 -61 -48 -141 -44 -54 2 -78 9 -103 27 -32 22 -33 25 -28 80 2 31 5 56 5 56 1 0 37 1 80 1 71 1 80 -1 89 -20z"/>
<path d="M1165 531 c-28 -7 -28 -8 -8 -14 24 -9 73 1 73 14 0 10 -20 10 -65 0z"/>
<path d="M680 558 c0 -4 16 -8 35 -8 19 0 35 2 35 4 0 2 -16 6 -35 8 -19 2 -35 0 -35 -4z"/>
<path d="M530 945 c0 -8 -9 -15 -19 -15 -23 0 -78 -61 -98 -109 -22 -51 -35 -168 -22 -192 17 -33 62 -24 94 17 25 33 27 40 17 67 -13 33 -8 49 12 41 10 -4 15 12 20 58 5 35 8 75 7 91 0 15 4 27 9 27 6 0 10 7 10 15 0 8 -7 15 -15 15 -8 0 -15 -7 -15 -15z"/>
</g>
<g id="layer107" fill="#b4886f" stroke="none">
<path d="M949 1535 c18 -8 42 -15 52 -15 11 0 22 -7 25 -15 4 -8 11 -12 17 -8 6 4 8 0 4 -10 -3 -10 -2 -17 3 -17 5 0 11 -9 15 -19 3 -11 14 -22 24 -26 9 -3 34 -21 55 -40 21 -19 42 -35 45 -35 4 0 11 -15 16 -32 6 -18 17 -33 25 -33 8 0 15 -7 16 -15 2 -35 5 -40 19 -40 35 0 47 93 21 153 -22 47 -44 69 -113 109 -76 45 -121 58 -198 58 l-60 -1 34 -14z"/>
<path d="M791 1497 c-53 -27 -109 -81 -117 -113 -3 -13 -3 -36 1 -51 l7 -28 23 29 c13 17 22 33 19 38 -3 4 0 8 5 8 6 0 10 5 9 12 -2 6 8 17 20 24 17 8 20 13 10 18 -10 4 -10 7 -1 12 7 3 10 11 7 18 -3 8 12 21 38 34 24 12 39 21 33 21 -5 1 -30 -9 -54 -22z"/>
<path d="M1022 1198 c-13 -13 -16 -29 -4 -25 4 1 21 -10 37 -25 l30 -28 -81 0 c-95 0 -144 -8 -144 -24 1 -28 20 -40 59 -38 23 2 41 -2 41 -7 0 -5 8 -12 18 -14 9 -2 5 -3 -10 -1 -15 2 -30 -1 -33 -6 -4 -6 -10 -8 -15 -5 -11 7 -85 -23 -78 -31 3 -2 50 -7 104 -10 55 -2 114 -7 132 -10 43 -7 45 22 2 31 -16 4 -30 11 -30 15 0 5 -6 7 -13 4 -7 -2 -13 4 -14 16 -2 24 19 26 37 4 8 -8 30 -23 49 -32 20 -9 39 -18 44 -20 12 -6 -4 81 -20 106 -8 13 -11 32 -8 42 14 43 -71 90 -103 58z"/>
<path d="M855 1187 c-11 -7 -21 -12 -22 -12 0 0 -4 -21 -8 -47 -9 -57 3 -62 30 -12 10 19 31 42 47 52 19 11 24 18 15 24 -17 11 -38 9 -62 -5z"/>
<path d="M530 945 c0 -8 -9 -15 -19 -15 -23 0 -78 -61 -98 -109 -22 -51 -35 -168 -22 -192 12 -23 61 -26 79 -4 19 23 1 39 -21 19 -24 -22 -27 -18 -33 36 -3 25 -3 36 0 26 12 -39 27 -45 50 -21 21 23 28 93 10 106 -5 4 -5 12 -1 19 5 8 12 2 22 -19 19 -38 37 -41 30 -4 -3 15 -1 38 5 52 5 15 10 41 10 59 0 17 4 32 9 32 5 0 9 7 9 15 0 8 -7 15 -15 15 -8 0 -15 -7 -15 -15z"/>
<path d="M596 928 c-41 -97 -65 -267 -54 -376 5 -48 11 -119 12 -159 3 -77 10 -93 79 -176 39 -47 103 -87 160 -101 33 -8 263 10 321 25 26 7 55 28 88 62 60 62 82 103 97 177 25 129 43 468 27 516 -4 12 -14 24 -24 28 -9 3 -25 11 -34 18 -22 16 -29 8 -30 -33 0 -19 -8 -41 -17 -49 -51 -47 -94 -81 -98 -77 -2 3 7 24 21 48 l24 44 -32 -2 c-17 -1 -48 -3 -68 -5 -38 -3 -38 -3 -16 -20 34 -25 17 -30 -25 -8 -41 22 -73 26 -79 9 -5 -14 -76 -21 -84 -8 -3 6 0 16 6 24 10 12 9 15 -8 15 -12 0 -24 5 -27 10 -3 6 -15 10 -27 10 -14 0 -18 -5 -14 -16 3 -9 6 -20 6 -25 0 -4 7 -6 15 -3 11 4 14 1 10 -10 -3 -9 -7 -24 -10 -33 -5 -13 -15 -7 -53 30 -26 26 -57 47 -67 47 -26 0 -37 9 -54 43 -19 35 -28 34 -45 -5z m214 -244 c22 -9 49 -14 60 -11 38 10 64 -76 40 -137 -26 -69 -226 -76 -281 -10 -6 8 -12 40 -13 72 -1 44 2 57 14 58 8 1 20 2 27 3 7 0 10 7 7 15 -11 28 85 34 146 10z m388 -15 c17 -6 33 -16 35 -24 5 -10 -7 -12 -52 -8 -38 4 -61 2 -65 -6 -4 -6 0 -11 11 -12 10 -1 32 -2 48 -4 17 -1 48 -3 70 -4 22 -2 35 -5 29 -7 -8 -3 -9 -16 -3 -42 15 -65 12 -72 -38 -94 -58 -26 -139 -20 -181 12 -36 29 -55 103 -35 143 7 15 19 28 26 29 20 2 31 5 47 11 52 20 67 20 108 6z"/>
<path d="M685 649 c-8 -11 35 -12 53 0 9 5 3 8 -17 9 -17 0 -33 -4 -36 -9z"/>
<path d="M776 652 c6 -4 16 -16 22 -27 6 -11 12 -14 12 -7 0 6 10 12 23 13 20 1 19 2 -8 14 -32 15 -68 20 -49 7z"/>
<path d="M1172 573 c-23 -2 -40 -8 -37 -14 10 -14 61 -11 75 6 7 8 11 14 9 13 -2 -1 -23 -3 -47 -5z"/>
<path d="M1158 518 c16 -8 28 -8 45 0 19 9 17 11 -23 11 -40 0 -42 -2 -22 -11z"/>
<path d="M1356 789 c-12 -38 -16 -152 -6 -165 7 -7 8 -19 4 -26 -10 -15 -6 -48 7 -64 5 -6 6 -14 2 -18 -17 -17 34 10 54 28 33 31 32 115 -2 183 -30 59 -52 83 -59 62z"/>
</g>
<g id="layer108" fill="#b57a87" stroke="none">
<path d="M980 1530 c0 -5 9 -10 20 -10 11 0 23 -7 26 -15 4 -8 10 -13 14 -10 5 3 11 1 15 -5 3 -5 2 -10 -4 -10 -6 0 1 -11 15 -25 14 -14 31 -25 38 -25 18 0 116 -96 116 -113 0 -8 7 -18 16 -21 9 -4 14 -13 10 -21 -7 -20 3 -45 20 -45 33 0 46 93 20 153 -19 45 -59 80 -141 121 -51 26 -83 36 -117 36 -27 0 -48 -4 -48 -10z"/>
<path d="M1022 1198 c-7 -7 -12 -16 -12 -22 0 -5 3 -7 6 -3 8 8 74 -42 74 -55 0 -6 -24 -7 -62 -4 -45 5 -64 3 -69 -6 -7 -10 -13 -10 -27 -2 -22 14 -72 7 -72 -10 1 -28 20 -39 69 -39 28 0 51 -3 51 -8 0 -4 8 -10 18 -13 9 -2 1 -5 -18 -4 -19 0 -37 -1 -40 -2 -3 -1 -17 -3 -32 -5 -29 -4 -70 -24 -53 -26 6 0 19 -2 30 -4 107 -18 218 -21 222 -8 2 6 -10 14 -26 18 -17 4 -31 11 -31 15 0 5 -7 7 -15 4 -10 -4 -15 0 -15 15 0 25 22 28 40 5 8 -8 30 -23 49 -32 20 -9 40 -18 44 -20 13 -6 -3 70 -20 96 -9 14 -12 34 -9 48 12 48 -68 96 -102 62z"/>
<path d="M600 933 c-47 -103 -71 -318 -49 -443 7 -41 12 -93 10 -115 -3 -53 8 -80 64 -148 29 -36 65 -67 98 -83 51 -26 54 -26 202 -21 82 4 167 11 189 18 66 18 160 130 180 212 27 111 46 498 26 522 -14 17 -30 20 -30 4 0 -5 5 -7 10 -4 6 3 10 -4 10 -17 l0 -23 -20 25 c-11 14 -18 30 -15 37 2 7 1 15 -4 17 -4 3 -13 -11 -20 -30 -7 -19 -16 -32 -20 -29 -5 2 -29 -13 -54 -35 -25 -22 -53 -40 -64 -40 -17 1 -17 1 0 11 51 30 29 95 -25 77 -23 -8 -26 -13 -18 -29 9 -16 7 -19 -13 -19 -13 0 -32 9 -42 20 -19 21 -61 27 -67 9 -5 -14 -76 -21 -84 -8 -3 6 0 16 6 24 10 12 9 15 -7 15 -11 0 -23 3 -27 7 -3 4 -16 8 -27 10 -16 2 -20 -1 -15 -13 3 -8 6 -20 6 -25 0 -4 7 -6 15 -3 11 4 14 1 10 -10 -3 -9 -7 -24 -10 -33 -5 -13 -15 -7 -53 30 -26 26 -57 47 -67 47 -26 0 -37 9 -54 43 -8 15 -17 27 -21 27 -4 0 -13 -12 -20 -27z m216 -249 c25 -8 52 -13 59 -10 8 3 22 -9 33 -28 17 -29 18 -40 10 -85 -14 -67 -40 -81 -154 -81 -79 0 -85 2 -119 31 -34 30 -35 34 -33 88 2 41 7 56 18 57 8 1 20 2 27 3 7 0 10 7 7 15 -11 28 82 34 152 10z m409 -26 c26 -20 26 -22 10 -34 -15 -11 -13 -12 16 -8 l34 6 -1 -61 c-1 -71 -10 -84 -68 -101 -48 -13 -166 -5 -166 12 0 5 -4 7 -9 4 -16 -10 -29 18 -36 79 -5 51 -3 64 12 82 37 45 162 57 208 21z"/>
<path d="M1352 714 c0 -42 3 -87 8 -100 7 -18 6 -24 -4 -24 -15 0 -11 -35 5 -56 5 -6 6 -14 2 -18 -17 -17 34 10 54 28 34 32 32 117 -5 187 -43 82 -59 77 -60 -17z"/>
</g>
<g id="layer109" fill="#b59f9d" stroke="none">
<path d="M980 1530 c0 -5 9 -10 20 -10 11 0 23 -7 26 -15 4 -8 10 -13 14 -10 5 3 11 1 15 -5 3 -5 2 -10 -4 -10 -6 0 1 -11 15 -25 14 -14 31 -25 38 -25 18 0 116 -96 116 -113 0 -8 6 -17 14 -20 8 -3 16 -18 18 -33 4 -36 22 -41 36 -9 26 57 4 142 -50 192 -46 43 -160 93 -210 93 -27 0 -48 -4 -48 -10z"/>
<path d="M706 1430 c-36 -41 -43 -63 -26 -90 7 -12 12 -12 29 4 11 10 18 23 15 27 -3 5 0 9 5 9 6 0 10 5 9 12 -2 6 8 17 20 24 17 8 20 13 10 18 -10 5 -10 7 0 12 15 7 6 24 -12 24 -8 0 -30 -18 -50 -40z"/>
<path d="M1053 1193 c-17 -6 -16 -33 1 -33 7 0 19 -7 26 -15 19 -23 39 -19 33 8 -11 41 -28 53 -60 40z"/>
<path d="M1082 1075 c6 -13 15 -22 19 -19 5 3 9 0 9 -5 0 -6 4 -11 8 -11 17 0 5 44 -14 51 -31 12 -34 10 -22 -16z"/>
<path d="M934 1028 c-3 -4 -9 -6 -14 -3 -9 6 -73 -15 -66 -22 12 -12 256 -30 256 -19 0 21 -165 62 -176 44z"/>
<path d="M600 933 c-47 -103 -71 -318 -49 -443 7 -41 12 -94 10 -116 -5 -76 74 -185 164 -230 53 -25 58 -26 182 -20 218 11 220 12 280 69 85 80 103 120 124 277 16 121 23 396 10 404 -7 5 -11 -1 -11 -16 l0 -23 -20 25 c-11 14 -18 30 -15 37 2 7 1 15 -4 17 -4 3 -13 -11 -20 -30 -7 -19 -16 -32 -20 -29 -5 2 -29 -13 -54 -35 -25 -22 -53 -40 -62 -40 -15 0 -14 2 3 18 12 9 22 26 24 37 3 17 -3 20 -40 23 -41 3 -43 2 -32 -17 9 -19 8 -21 -13 -21 -13 0 -32 9 -42 20 -19 21 -61 27 -67 9 -5 -14 -76 -21 -84 -8 -3 6 0 16 6 24 10 12 9 15 -7 15 -11 0 -23 3 -27 7 -3 4 -16 8 -27 10 -16 2 -20 -1 -15 -13 3 -8 6 -20 6 -25 0 -4 7 -6 15 -3 11 4 14 1 10 -10 -3 -9 -7 -24 -10 -33 -5 -13 -15 -7 -53 30 -26 26 -57 47 -67 47 -26 0 -37 9 -54 43 -8 15 -17 27 -21 27 -4 0 -13 -12 -20 -27z m216 -249 c25 -8 52 -13 59 -10 8 3 22 -9 33 -28 17 -29 18 -40 10 -85 -14 -67 -40 -81 -154 -81 -79 0 -85 2 -119 31 -34 30 -35 34 -33 88 2 41 7 56 18 57 8 1 20 2 27 3 7 0 10 7 7 15 -11 28 82 34 152 10z m409 -26 c26 -20 26 -22 10 -34 -15 -11 -13 -12 16 -8 l34 6 -1 -67 c-2 -74 -13 -89 -72 -101 -49 -9 -153 2 -163 18 -5 7 -9 9 -9 4 0 -5 -6 -3 -14 3 -22 18 -30 128 -12 156 30 45 164 60 211 23z"/>
<path d="M455 875 c-22 -25 -44 -55 -48 -68 -17 -42 -27 -158 -16 -178 12 -23 52 -25 73 -3 22 21 9 40 -13 20 -31 -28 -41 -19 -40 32 1 26 4 38 6 28 10 -38 26 -45 49 -21 21 23 28 93 10 106 -5 4 -5 12 -1 19 5 8 12 2 22 -19 21 -42 33 -39 33 7 0 20 1 55 2 77 4 59 -25 59 -77 0z"/>
<path d="M1355 694 c0 -77 2 -88 23 -104 12 -10 22 -24 22 -32 -1 -9 -5 -8 -14 5 -16 20 -36 23 -36 4 0 -13 30 -47 42 -47 3 0 11 13 18 30 7 16 16 27 21 24 5 -3 9 19 9 48 0 64 -41 158 -69 158 -14 0 -17 -12 -16 -86z"/>
</g>
<g id="layer110" fill="#dcae95" stroke="none">
<path d="M980 1530 c0 -5 9 -10 20 -10 11 0 23 -7 26 -15 4 -8 10 -13 14 -10 5 3 11 1 15 -5 3 -5 2 -10 -4 -10 -6 0 1 -11 15 -25 14 -14 30 -25 36 -25 16 0 109 -77 135 -112 12 -18 23 -43 23 -56 0 -14 5 -22 13 -20 13 5 22 87 12 125 -12 49 -101 127 -132 116 -7 -3 -13 3 -13 12 0 11 -5 15 -16 11 -8 -3 -13 -2 -10 3 9 13 -42 31 -89 31 -25 0 -45 -4 -45 -10z"/>
<path d="M710 1435 c-32 -33 -45 -83 -27 -102 9 -9 48 27 41 38 -3 5 0 9 5 9 6 0 10 5 9 12 -2 6 8 17 20 24 17 8 20 13 10 18 -10 5 -10 7 0 12 14 7 6 24 -12 24 -6 0 -27 -16 -46 -35z"/>
<path d="M862 1183 c-13 -5 -42 -66 -42 -89 0 -24 16 -15 33 19 9 17 24 42 33 55 17 22 8 28 -24 15z"/>
<path d="M883 1113 c-24 -5 -29 -19 -14 -42 7 -10 25 -14 60 -12 30 1 51 -2 51 -9 0 -5 10 -10 23 -9 21 0 21 1 2 10 -15 7 -10 8 23 6 30 -2 42 1 42 11 0 8 -6 12 -14 9 -8 -3 -16 -1 -18 4 -2 6 -26 13 -53 15 -27 3 -54 9 -59 14 -6 6 -12 9 -15 9 -4 -1 -16 -4 -28 -6z"/>
<path d="M1081 1076 c7 -14 16 -23 20 -20 5 3 9 -1 10 -8 0 -7 4 -4 9 7 9 23 4 30 -28 40 -21 6 -21 5 -11 -19z"/>
<path d="M940 1028 c0 -5 -8 -7 -17 -4 -10 3 -31 -1 -48 -8 -29 -12 -27 -13 50 -21 164 -17 216 -12 143 15 -49 17 -128 28 -128 18z"/>
<path d="M600 933 c-51 -110 -73 -330 -46 -461 9 -46 14 -87 11 -93 -12 -18 6 -69 43 -122 45 -65 47 -67 105 -101 l47 -28 153 7 c203 8 222 12 263 48 42 36 96 112 93 129 -1 7 0 20 4 28 22 59 44 176 27 148 -20 -33 -93 -51 -175 -43 -41 4 -75 11 -75 16 0 5 -6 9 -14 9 -17 0 -22 15 -31 88 -9 68 8 95 69 111 70 17 120 14 151 -11 26 -21 27 -22 9 -35 -17 -13 -16 -14 11 -7 17 3 35 7 40 8 6 0 9 -17 7 -41 -5 -53 14 -57 22 -5 20 134 17 297 -4 262 -5 -8 -13 -2 -24 20 -8 18 -13 36 -11 41 3 4 2 10 -3 13 -5 3 -14 -11 -21 -30 -7 -19 -16 -32 -20 -29 -5 2 -29 -13 -54 -35 -26 -24 -55 -40 -69 -39 l-23 0 23 9 c22 9 44 48 35 63 -2 4 -22 7 -44 7 -37 0 -39 -2 -29 -20 9 -17 8 -20 -13 -20 -13 0 -32 9 -42 20 -19 21 -61 27 -67 9 -5 -14 -76 -21 -84 -8 -3 6 0 16 6 24 10 12 9 15 -7 15 -11 0 -23 3 -27 7 -3 4 -16 8 -27 10 -16 2 -20 -1 -15 -13 3 -8 6 -20 6 -25 0 -4 7 -6 15 -3 11 4 14 1 10 -10 -3 -9 -7 -24 -10 -33 -5 -13 -15 -7 -53 30 -26 26 -57 47 -67 47 -26 0 -37 9 -54 43 -8 15 -17 27 -21 27 -4 0 -13 -12 -20 -27z m216 -249 c25 -8 52 -13 59 -10 8 3 22 -9 33 -28 17 -29 18 -40 9 -85 -6 -32 -16 -55 -26 -59 -9 -3 -19 -10 -23 -15 -3 -6 -47 -11 -96 -11 -90 -1 -91 -1 -127 34 -33 32 -35 38 -33 90 2 40 7 55 18 56 8 1 20 2 27 3 7 0 10 7 7 15 -11 28 82 34 152 10z"/>
<path d="M805 640 c-4 -6 6 -10 22 -10 22 0 25 2 13 10 -19 12 -27 12 -35 0z"/>
<path d="M475 894 c-14 -15 -25 -31 -25 -35 0 -5 -6 -9 -14 -9 -32 0 -68 -207 -38 -217 8 -3 12 10 13 44 1 26 4 39 6 29 10 -38 26 -45 49 -21 21 23 28 93 10 106 -5 4 -5 12 -1 19 5 8 12 2 22 -19 21 -42 33 -39 33 7 0 20 1 55 2 77 4 50 -20 58 -57 19z"/>
<path d="M1355 694 c0 -73 3 -88 20 -100 18 -13 20 -11 32 33 6 27 12 59 12 73 0 28 -20 60 -38 60 -6 0 -11 5 -11 10 0 6 -3 10 -7 10 -5 0 -8 -39 -8 -86z"/>
<path d="M446 641 c-9 -9 -16 -20 -16 -23 0 -12 39 4 44 18 8 21 -10 25 -28 5z"/>
<path d="M1420 626 c0 -13 -3 -32 -6 -40 -5 -12 -2 -15 10 -10 18 7 22 59 6 69 -6 3 -10 -5 -10 -19z"/>
<path d="M1150 636 c0 -2 13 -6 29 -8 17 -2 28 -1 25 4 -5 8 -54 12 -54 4z"/>
<path d="M1367 574 c-13 -13 -8 -29 14 -42 18 -12 19 -11 11 5 -5 10 -11 24 -13 31 -3 7 -8 10 -12 6z"/>
</g>
<g id="layer111" fill="#e2ccce" stroke="none">
<path d="M1274 1337 c0 -29 -4 -63 -8 -76 -6 -18 -5 -22 5 -19 16 5 25 109 12 132 -5 9 -8 -6 -9 -37z"/>
<path d="M984 784 c-6 -2 -8 -18 -6 -35 6 -42 35 -35 36 9 1 30 -5 36 -30 26z"/>
<path d="M1226 765 c-20 -7 -52 -16 -71 -19 -40 -8 -47 -26 -11 -26 28 0 78 -17 86 -29 3 -5 15 -5 28 0 15 6 22 17 22 34 0 15 4 24 10 20 6 -3 10 0 10 8 0 21 -32 26 -74 12z"/>
<path d="M982 688 c-16 -16 -15 -28 3 -28 8 0 15 9 15 20 0 23 -2 24 -18 8z"/>
<path d="M1360 552 c0 -4 9 -13 21 -20 19 -12 19 -11 9 8 -10 19 -30 28 -30 12z"/>
<path d="M872 422 c-1 -14 3 -31 8 -37 6 -7 13 -36 17 -64 3 -28 10 -51 14 -51 5 0 9 -6 9 -14 0 -10 -17 -15 -60 -18 -33 -1 -60 1 -60 6 0 8 -139 0 -148 -9 -2 -2 -2 -15 2 -28 8 -33 86 -71 131 -63 75 14 141 16 216 6 100 -14 142 -3 190 47 45 48 83 102 76 110 -3 3 -17 6 -30 7 -14 0 -23 6 -20 13 3 7 -2 10 -14 7 -16 -5 -19 1 -18 38 0 39 2 43 27 46 14 2 32 10 39 18 10 13 6 14 -32 7 -24 -4 -71 -8 -104 -8 -33 0 -63 -4 -67 -9 -4 -6 -13 -5 -22 3 -12 10 -19 11 -30 2 -10 -9 -16 -8 -26 4 -9 10 -27 15 -55 14 -36 -2 -41 -6 -43 -27z m90 -117 c-2 -25 -7 -45 -11 -45 -3 0 -5 20 -3 45 2 25 7 45 11 45 3 0 5 -20 3 -45z"/>
</g>


</svg>